<svg xmlns="http://www.w3.org/2000/svg" version="1.1" viewBox="20.61 86.27 458.19 339.1">
<path d="M0 0 C7.3988292 5.14268397 14.23263217 11.11001773 21.16015625 16.86328125 C24.88932097 19.95144362 28.66873011 22.96612487 32.48828125 25.94140625 C37.51781937 29.8604987 42.48631346 33.8468685 47.42578125 37.87890625 C52.38810369 41.92872692 57.37732145 45.93695819 62.42578125 49.87890625 C68.16588793 54.36090735 73.82271371 58.93847182 79.46484375 63.54296875 C83.75029743 67.03420708 88.06907578 70.47709513 92.42578125 73.87890625 C98.16588793 78.36090735 103.82271371 82.93847182 109.46484375 87.54296875 C113.75029743 91.03420708 118.06907578 94.47709513 122.42578125 97.87890625 C128.15848942 102.35513044 133.80849196 106.92623147 139.44287109 111.52539062 C144.49344604 115.64058287 149.59351109 119.68769015 154.734375 123.68945312 C156.30321241 124.91284093 157.86459639 126.14576783 159.42578125 127.37890625 C159.96025879 127.79954346 160.49473633 128.22018066 161.04541016 128.65356445 C169.20622457 135.23027998 174.4367977 145.09301988 176.42578125 155.37890625 C177.37912996 169.9358077 174.3715356 181.67562028 164.83154297 192.88378906 C162.51635022 195.34614412 159.86996862 197.35749064 157.17578125 199.37890625 C155.92951061 200.33531545 154.68478894 201.29374556 153.44140625 202.25390625 C152.78849609 202.75792969 152.13558594 203.26195312 151.46289062 203.78125 C147.89495055 206.57950022 144.41427757 209.48268435 140.92578125 212.37890625 C135.23495305 217.09266969 129.49251279 221.72345339 123.6640625 226.265625 C119.20488821 229.74744602 114.80843894 233.30138697 110.42578125 236.87890625 C104.90244468 241.38657839 99.33393528 245.82733392 93.71484375 250.21484375 C89.24141417 253.71666872 84.82710923 257.28701789 80.42578125 260.87890625 C74.9023844 265.38650598 69.33393689 269.82733267 63.71484375 274.21484375 C59.24141417 277.71666872 54.82710923 281.28701789 50.42578125 284.87890625 C44.9031889 289.38584943 39.33609353 293.8267508 33.71704102 298.21264648 C29.21911405 301.7326802 24.78695006 305.32869948 20.36328125 308.94140625 C18.35625101 310.5722537 16.3477152 312.20121091 14.33789062 313.82861328 C13.10009393 314.83218951 11.86428043 315.83821881 10.63085938 316.84716797 C-3.53814794 328.39868841 -15.4425006 332.79291827 -33.57421875 331.37890625 C-45.10601891 329.04857712 -54.79490751 321.84631039 -61.57421875 312.37890625 C-65.29432984 305.64947452 -67.69369032 299.34484697 -67.70564651 291.60614491 C-67.70948766 290.66880664 -67.7133288 289.73146837 -67.71728635 288.76572591 C-67.71641987 287.74433717 -67.71555338 286.72294843 -67.71466064 285.67060852 C-67.71763177 284.57900002 -67.72060289 283.48739152 -67.72366405 282.36270398 C-67.7323488 278.69793099 -67.73385911 275.03319067 -67.73535156 271.3684082 C-67.73997989 268.74353465 -67.74500458 266.11866177 -67.75039673 263.49378967 C-67.76396608 256.35727998 -67.77000264 249.22077591 -67.77440739 242.08425546 C-67.77717229 237.62587824 -67.7814101 233.16750318 -67.78591156 228.70912743 C-67.79810261 216.35868243 -67.80840211 204.00823916 -67.81178665 191.65778828 C-67.81200622 190.86765969 -67.81222578 190.0775311 -67.812452 189.26345922 C-67.81267028 188.47146825 -67.81288856 187.67947728 -67.81311345 186.86348659 C-67.81355691 185.25868181 -67.81400348 183.65387704 -67.81445312 182.04907227 C-67.81467455 181.25303812 -67.81489598 180.45700397 -67.81512412 179.63684758 C-67.81907071 166.74317469 -67.83652119 153.84955837 -67.85981265 140.95590732 C-67.8835473 127.70969313 -67.89598947 114.4635073 -67.89715457 101.21727151 C-67.89807016 93.7834456 -67.90379329 86.34969339 -67.92197418 78.91588783 C-67.93740375 72.58484814 -67.94247885 66.25390492 -67.93423608 59.92284999 C-67.93033957 56.6952434 -67.93285497 53.46787077 -67.94529343 50.24028015 C-67.9580114 46.73406135 -67.95213636 43.22833779 -67.94171143 39.72212219 C-67.94976783 38.71188706 -67.95782423 37.70165193 -67.96612477 36.66080362 C-67.88096467 24.37914651 -63.73068471 13.9189233 -55.57421875 4.69140625 C-40.51577813 -9.55489375 -17.04309735 -10.73275478 0 0 Z " fill="#ffffff" transform="translate(88.57421875,93.62109375)"/>
<path d="M0 0 C7.42257252 5.16256536 14.27640199 11.15749423 21.2265625 16.9296875 C24.95572722 20.01784987 28.73513636 23.03253112 32.5546875 26.0078125 C37.58422562 29.92690495 42.55271971 33.91327475 47.4921875 37.9453125 C52.45450994 41.99513317 57.4437277 46.00336444 62.4921875 49.9453125 C68.23229418 54.4273136 73.88911996 59.00487807 79.53125 63.609375 C83.81670368 67.10061333 88.13548203 70.54350138 92.4921875 73.9453125 C98.23229418 78.4273136 103.88911996 83.00487807 109.53125 87.609375 C113.81670368 91.10061333 118.13548203 94.54350138 122.4921875 97.9453125 C128.22731859 102.42342856 133.88074592 106.99524966 139.51586914 111.59838867 C143.35744867 114.73030877 147.22674446 117.81993362 151.13867188 120.86352539 C153.93614874 123.04133215 156.71571149 125.24076975 159.4921875 127.4453125 C160.37003906 128.14140625 161.24789062 128.8375 162.15234375 129.5546875 C167.67340501 134.16325282 171.3130436 138.99531864 174.4921875 145.4453125 C174.8325 146.10660156 175.1728125 146.76789063 175.5234375 147.44921875 C179.35017723 156.50229283 178.96704172 169.31201065 175.8671875 178.5078125 C169.80243466 192.30091359 158.86012271 200.49184992 147.265625 209.4921875 C143.29290989 212.58462053 139.39060999 215.76005045 135.4921875 218.9453125 C129.96908436 223.45326584 124.4003355 227.89374488 118.78125 232.28125 C114.30782042 235.78307497 109.89351548 239.35342414 105.4921875 242.9453125 C99.96879065 247.45291223 94.40034314 251.89373892 88.78125 256.28125 C84.30782042 259.78307497 79.89351548 263.35342414 75.4921875 266.9453125 C69.96879065 271.45291223 64.40034314 275.89373892 58.78125 280.28125 C54.30782042 283.78307497 49.89351548 287.35342414 45.4921875 290.9453125 C39.97201071 295.45028436 34.40897867 299.89142885 28.79003906 304.27246094 C24.92653821 307.29349483 21.11781587 310.37500056 17.3269043 313.48657227 C1.8584605 326.16529789 -9.7286171 334.02281302 -30.34765625 332.6640625 C-40.8021238 331.60538224 -49.9832841 325.51577573 -56.87109375 317.796875 C-67.50124934 303.92131542 -67.11139467 288.72960423 -67.47075081 271.89978886 C-67.54797835 268.35891001 -67.65721657 264.82568982 -67.84521484 261.28881836 C-69.12591169 236.56731235 -69.12591169 236.56731235 -62.90942383 229.58666992 C-59.45494815 226.46449673 -55.74350447 224.00749299 -51.69413757 221.72640991 C-48.20058721 219.67933174 -45.0977933 217.16232082 -41.9453125 214.6328125 C-41.37270691 214.18306061 -40.80010132 213.73330872 -40.21014404 213.26992798 C-28.14802171 203.7192348 -18.49208522 189.03052251 -16.5078125 173.4453125 C-15.06172187 154.98396745 -18.24456759 138.62507102 -29.69140625 123.57421875 C-34.09764317 118.47340261 -38.92028399 114.16126208 -44.1953125 110.0078125 C-44.74321945 109.56975784 -45.2911264 109.13170319 -45.8556366 108.68037415 C-48.95132004 106.25483554 -51.95956999 104.14605962 -55.46362305 102.3515625 C-60.05908695 99.77002518 -63.7981151 97.05279913 -66.5078125 92.4453125 C-68.94197683 83.23481914 -68.12474346 73.42444813 -67.71264648 63.98522949 C-67.60635816 61.18614112 -67.56717838 58.38799659 -67.53138924 55.5872488 C-67.05824361 19.8214091 -67.05824361 19.8214091 -53.91796875 5.625 C-39.43875129 -7.46965695 -16.75656833 -10.38802834 0 0 Z " fill="#ffffff" transform="translate(300.5078125,92.5546875)"/>
</svg>