<?xml version="1.0" encoding="UTF-8"?>
<svg version="1.1" xmlns="http://www.w3.org/2000/svg" width="512" height="512">
<path d="M0 0 C5.32793946 3.19579745 10.71797516 6.28238006 16.10595703 9.37548828 C18.29102504 10.63430405 20.47592019 11.8934199 22.66064453 13.15283203 C23.74571289 13.77786621 24.83078125 14.40290039 25.94873047 15.046875 C31.37755645 18.17478976 36.80414984 21.30657276 42.23095703 24.43798828 C44.39761286 25.68800707 46.56427953 26.93800707 48.73095703 28.18798828 C159.23095703 91.93798828 159.23095703 91.93798828 269.73095703 155.68798828 C270.80418213 156.30714111 271.87740723 156.92629395 272.9831543 157.56420898 C275.14255098 158.81004598 277.30189372 160.05597646 279.46118164 161.30200195 C286.11954781 165.14404357 292.78001534 168.98241254 299.44189453 172.81835938 C302.71876915 174.70743176 305.99265097 176.60160438 309.26611328 178.49658203 C312.92830532 180.61563384 316.60026332 182.71416698 320.28955078 184.78564453 C328.45910088 189.40837181 335.64467046 194.1334427 342.23095703 200.93798828 C343.08367187 201.77716797 343.08367187 201.77716797 343.95361328 202.63330078 C350.32296489 209.37732014 354.88239386 218.7541024 356.23095703 227.93798828 C356.36373047 228.81712891 356.49650391 229.69626953 356.63330078 230.60205078 C358.30808642 244.86595542 355.67054083 260.08104322 346.91845703 271.75048828 C345.70868951 273.16316798 344.4798206 274.55974984 343.23095703 275.93798828 C342.69341797 276.59025391 342.15587891 277.24251953 341.60205078 277.91455078 C335.81608771 284.41243324 328.38129454 288.24047661 320.88769531 292.44091797 C316.93092481 294.6705556 313.00419534 296.95145505 309.07373047 299.22705078 C305.73663848 301.15837166 302.39642082 303.08417464 299.05517578 305.00830078 C297.36207275 305.98331543 297.36207275 305.98331543 295.63476562 306.97802734 C294.51150879 307.62481445 293.38825195 308.27160156 292.23095703 308.93798828 C287.85544915 311.45794123 283.4803957 313.97867969 279.10595703 316.50048828 C278.02757568 317.12213867 276.94919434 317.74378906 275.83813477 318.38427734 C268.66336902 322.52420833 261.5059236 326.69290618 254.35595703 330.87548828 C245.08595926 336.29720006 235.77263951 341.64003743 226.44250488 346.95721436 C217.31812863 352.15843957 208.22962929 357.41826706 199.1640625 362.72143555 C188.64011078 368.8756557 178.07715566 374.96168824 167.51318359 381.046875 C162.08435761 384.17478976 156.65776422 387.30657276 151.23095703 390.43798828 C149.0643012 391.68800707 146.89763453 392.93800707 144.73095703 394.18798828 C143.65845703 394.80673828 142.58595703 395.42548828 141.48095703 396.06298828 C84.60595703 428.87548828 84.60595703 428.87548828 27.73095703 461.68798828 C26.65700684 462.30762451 25.58305664 462.92726074 24.4765625 463.56567383 C22.3247179 464.80702303 20.17270155 466.04807458 18.02050781 467.28881836 C12.97543642 470.19778831 7.93207282 473.10959351 2.8949585 476.03231812 C1.11415702 477.06541768 -0.66720155 478.09754999 -2.44873047 479.12939453 C-4.68161379 480.42304916 -6.91345207 481.71850992 -9.14404297 483.01611328 C-21.25195187 490.02514451 -31.76414454 495.54449187 -46.08154297 495.37548828 C-46.99798584 495.36718994 -47.91442871 495.3588916 -48.85864258 495.3503418 C-63.23462328 494.99426859 -75.90438459 489.65406055 -86.51904297 479.87548828 C-101.50315095 463.91060232 -102.92505335 445.36702146 -102.90275574 424.49224854 C-102.90462614 422.82717581 -102.90692776 421.16210352 -102.90962106 419.49703193 C-102.91571703 414.94041316 -102.91560807 410.38381279 -102.91442668 405.82719088 C-102.91422212 400.90544129 -102.91974672 395.98369753 -102.92448425 391.06195068 C-102.93277916 381.42655096 -102.93553857 371.79115735 -102.93609663 362.15575436 C-102.93657232 354.32144349 -102.93862971 346.48713463 -102.94179726 338.6528244 C-102.95060049 316.42646267 -102.95521712 294.20010576 -102.95446678 271.97374228 C-102.95440685 270.1776212 -102.95440685 270.1776212 -102.9543457 268.34521484 C-102.95430482 267.14633384 -102.95426394 265.94745283 -102.95422182 264.7122421 C-102.95381539 245.2839489 -102.96338499 225.85567509 -102.97748407 206.42738751 C-102.99185668 186.46420287 -102.99875377 166.50102768 -102.99789029 146.53783774 C-102.99755864 135.33578659 -103.00029185 124.13375577 -103.01106834 112.93170929 C-103.02018495 103.39422382 -103.02233903 93.85676789 -103.01555892 84.31927994 C-103.01229966 79.45681555 -103.01221559 74.59440781 -103.02091217 69.73194885 C-103.02880428 65.27329508 -103.0273182 60.81474261 -103.01862804 56.35609123 C-103.01709901 54.75049846 -103.01888648 53.14489803 -103.02448811 51.5393143 C-103.09078363 31.17452848 -100.42666893 13.42170869 -86.26904297 -2.12451172 C-59.50918802 -27.70754704 -27.64914334 -16.71564179 0 0 Z " fill="#ffffff" transform="translate(128.76904296875,17.06201171875)"/>
</svg>
