<svg xmlns="http://www.w3.org/2000/svg" version="1.1" viewBox="31.61 131.96 449.31 248.38">
<path d="M0 0 C1.2212866 0.8972274 2.44264434 1.79435796 3.6640625 2.69140625 C4.30504883 3.16723145 4.94603516 3.64305664 5.60644531 4.13330078 C8.42551769 6.21657754 11.27063416 8.2629166 14.11547852 10.31079102 C16.40874818 11.9617965 18.69885474 13.61710775 20.98828125 15.2734375 C24.02493186 17.46951263 27.0639656 19.66221325 30.10546875 21.8515625 C38.61492059 27.97997197 47.08239685 34.16119498 55.51708984 40.39208984 C63.1016884 45.98932174 70.7408833 51.50908627 78.39111328 57.01611328 C82.89023169 60.25646195 87.38324119 63.50527702 91.87744141 66.75244141 C95.612945 69.45098022 99.3498148 72.14757953 103.08984375 74.83984375 C111.06666437 80.58506938 119.0191897 86.36182607 126.9375 92.1875 C127.73212646 92.77136475 128.52675293 93.35522949 129.34545898 93.95678711 C142.51210194 103.66486523 142.51210194 103.66486523 144.625 110.625 C145.46734178 116.9553261 145.45266965 123.18628267 142.109375 128.78515625 C138.87484078 132.79427629 134.78026004 135.63240396 130.625 138.625 C129.28357591 139.60378544 127.94245114 140.58298116 126.6015625 141.5625 C122.74838964 144.36601542 118.87820518 147.14521507 115.00390625 149.91943359 C111.20341403 152.64421178 107.41457464 155.38506916 103.625 158.125 C99.13901255 161.36647515 94.65195137 164.60641978 90.16015625 167.83984375 C82.45037027 173.39304624 74.76742369 178.97937205 67.125 184.625 C58.74551542 190.81511119 50.31392637 196.92974309 41.85888672 203.01611328 C38.86252181 205.17415096 35.86913477 207.3362971 32.87597656 209.4987793 C31.37943735 210.57995584 29.88269364 211.66084937 28.38574219 212.74145508 C24.57067145 215.49553719 20.75798163 218.25282469 16.94921875 221.015625 C12.515825 224.22995152 8.07457831 227.4331161 3.625 230.625 C2.96999512 231.09550781 2.31499023 231.56601562 1.64013672 232.05078125 C-0.15146064 233.33293497 -1.94920726 234.60580563 -3.75 235.875 C-4.74773437 236.58140625 -5.74546875 237.2878125 -6.7734375 238.015625 C-11.64207074 241.02745217 -16.75960248 241.38596508 -22.375 240.625 C-29.4682881 238.27811091 -33.67363135 235.0725454 -37.375 228.625 C-38.66831276 224.74506173 -38.51963613 221.07224379 -38.51544189 217.02848816 C-38.51989858 215.69567172 -38.51989858 215.69567172 -38.5244453 214.33592969 C-38.53314476 211.34658366 -38.5346416 208.35727762 -38.53613281 205.36791992 C-38.54076009 203.22945571 -38.54578462 201.09099232 -38.55117798 198.95252991 C-38.56431234 193.13430874 -38.57074891 187.31609912 -38.57518864 181.49786544 C-38.57811757 177.86468268 -38.58222203 174.23150308 -38.58669281 170.59832191 C-38.60037021 159.23616239 -38.61003579 147.87401009 -38.6138947 136.51184291 C-38.61837679 123.3860999 -38.63593073 110.26046095 -38.6648953 97.13474959 C-38.68649492 86.99539894 -38.69659806 76.85607761 -38.69793582 66.71670419 C-38.69898504 60.65789405 -38.70491781 54.5991817 -38.72275543 48.54039574 C-38.73920643 42.84163858 -38.74140602 37.14305303 -38.73261642 31.44428062 C-38.73184447 29.35208172 -38.73620955 27.2598737 -38.74607468 25.16769791 C-38.75874899 22.31241403 -38.75294185 19.45774213 -38.74249268 16.60246277 C-38.75054908 15.77375945 -38.75860548 14.94505613 -38.76690602 14.09124058 C-38.71308435 7.80664458 -37.2443545 3.7403222 -33 -1.0625 C-22.12428159 -10.64349003 -10.92092295 -8.1165378 0 0 Z " fill="#ffffff" transform="translate(70.375,139.375)"/>
<path d="M0 0 C1.00804687 0.74894531 2.01609375 1.49789062 3.0546875 2.26953125 C3.6331543 2.6970166 4.21162109 3.12450195 4.80761719 3.56494141 C8.13962741 6.03209512 11.4512182 8.52501773 14.75390625 11.03125 C19.10068605 14.31992554 23.50590142 17.52298038 27.9296875 20.70703125 C28.67935791 21.24666504 29.42902832 21.78629883 30.20141602 22.34228516 C31.72482362 23.43804385 33.24850587 24.5334208 34.77246094 25.62841797 C38.5376782 28.33592657 42.29584802 31.05317922 46.0546875 33.76953125 C47.55465316 34.85291213 49.05465317 35.93624545 50.5546875 37.01953125 C53.5546875 39.18619792 56.5546875 41.35286458 59.5546875 43.51953125 C60.29710693 44.05570068 61.03952637 44.59187012 61.80444336 45.14428711 C63.305343 46.22831541 64.80615672 47.31246267 66.30688477 48.39672852 C70.04242717 51.0954078 73.77941004 53.79204437 77.51953125 56.484375 C86.02960179 62.61400623 94.49951886 68.79402585 102.93359375 75.02783203 C108.42663437 79.08324092 113.9507561 83.09306768 119.4921875 87.08203125 C121.67811191 88.6601632 123.86330122 90.23930253 126.04785156 91.81933594 C127.33764106 92.7513736 128.62856419 93.68184559 129.92089844 94.61035156 C145.14053274 105.56882779 145.14053274 105.56882779 147.0546875 114.26953125 C147.52808994 120.13972147 147.21593513 125.17479883 144.0546875 130.26953125 C137.75141933 137.28589642 129.73575511 142.50989719 122.04101562 147.87451172 C118.43560889 150.40662751 114.87264005 152.9975454 111.3046875 155.58203125 C109.76702033 156.69413935 108.22925914 157.80611748 106.69140625 158.91796875 C105.53970947 159.75086426 105.53970947 159.75086426 104.36474609 160.60058594 C102.10287921 162.23471424 99.83892442 163.86590255 97.57421875 165.49609375 C89.78484654 171.1060119 82.0249178 176.75225247 74.3046875 182.45703125 C67.78745877 187.27240054 61.23355435 192.02817598 54.62890625 196.72265625 C48.17943239 201.30943338 41.77761357 205.96286478 35.36474609 210.60058594 C33.10287921 212.23471424 30.83892442 213.86590255 28.57421875 215.49609375 C27.8383252 216.02630127 27.10243164 216.55650879 26.34423828 217.1027832 C24.86279579 218.16993499 23.38070176 219.23618289 21.89794922 220.30151367 C17.89125833 223.18872656 13.9193983 226.11462053 9.98046875 229.09375 C9.13669678 229.72804932 8.2929248 230.36234863 7.42358398 231.01586914 C5.80889364 232.23222178 4.19991344 233.45620743 2.59790039 234.68920898 C-3.97806502 239.62996869 -10.42940458 243.29731324 -18.9453125 242.26953125 C-25.90641273 240.40435607 -31.23039266 237.62003611 -34.9453125 231.26953125 C-38.41196069 222.94409013 -37.89952425 213.47282054 -38.13989258 204.59594727 C-38.21812694 202.34755973 -38.33401297 200.10014891 -38.48852539 197.85571289 C-39.7151556 179.71253067 -39.7151556 179.71253067 -35.11938477 173.99984741 C-30.61806256 170.00560961 -25.59593529 167.18364594 -20.24020386 164.49482727 C-16.94205052 162.73386628 -14.21685532 160.56642463 -11.3203125 158.20703125 C-7.09202227 154.87318703 -2.78616163 151.752076 1.65527344 148.70825195 C15.22979314 139.59229962 15.22979314 139.59229962 22.0546875 125.26953125 C23.25557579 115.24579021 21.84078628 107.61607287 16.0546875 99.26953125 C13.68269877 96.45242858 11.04407389 94.41051823 8.0546875 92.26953125 C7.19786377 91.65223145 7.19786377 91.65223145 6.32373047 91.02246094 C2.80726046 88.49658347 -0.73180817 86.00492989 -4.28515625 83.53125 C-9.74938999 79.72186551 -15.13999823 75.8129598 -20.52880859 71.89794922 C-21.22184082 71.39537598 -21.91487305 70.89280273 -22.62890625 70.375 C-23.3156543 69.84849854 -24.00240234 69.32199707 -24.70996094 68.77954102 C-26.93512426 67.16386305 -26.93512426 67.16386305 -29.67285156 66.16381836 C-33.1087374 64.55039024 -34.74406513 63.40223162 -36.9453125 60.26953125 C-38.53333611 53.5981684 -38.12605317 46.58880634 -37.91943359 39.78295898 C-37.82090181 36.47680497 -37.79648748 33.17662824 -37.78515625 29.86914062 C-37.7569658 27.74603136 -37.72455029 25.62297314 -37.6875 23.5 C-37.6767746 22.52363083 -37.66604919 21.54726166 -37.65499878 20.54130554 C-37.4084359 13.31095588 -36.31842291 5.65035541 -31.00363159 0.32341003 C-20.87325088 -7.81874494 -10.4422863 -7.26226993 0 0 Z " fill="#ffffff" transform="translate(200.9453125,137.73046875)"/>
<path d="M0 0 C2.00878476 1.37052747 3.98111141 2.78180002 5.94702148 4.21313477 C7.04735718 5.00216187 7.04735718 5.00216187 8.16992188 5.80712891 C10.49617023 7.4776927 12.81555036 9.1574884 15.13452148 10.83813477 C16.62635864 11.91284001 18.11854213 12.98706466 19.61108398 14.06079102 C23.36988318 16.76760442 27.12200046 19.48353691 30.87280273 22.20141602 C33.11391882 23.82322541 35.35803463 25.44078608 37.60327148 27.05688477 C46.11703285 33.18735153 54.58814051 39.37153898 63.02661133 45.60522461 C70.61120988 51.2024565 78.25040478 56.72222103 85.90063477 62.22924805 C89.64811932 64.92825605 93.39107994 67.63352361 97.13452148 70.33813477 C98.63450003 71.42149781 100.13450002 72.50483115 101.63452148 73.58813477 C104.63452148 75.75480143 107.63452148 77.9214681 110.63452148 80.08813477 C111.37806885 80.62494873 112.12161621 81.1617627 112.88769531 81.71484375 C114.37785556 82.79145741 115.86728456 83.86908398 117.35595703 84.94775391 C121.25091848 87.76791942 125.15946579 90.56600856 129.09155273 93.33422852 C129.90430664 93.91043945 130.71706055 94.48665039 131.55444336 95.08032227 C133.1018621 96.17677897 134.65368025 97.26706441 136.21069336 98.34985352 C142.97070306 103.15807306 148.18349771 108.16226786 149.88452148 116.52563477 C150.51272295 123.03718461 149.52049368 128.58478078 145.38452148 133.77563477 C140.59817721 138.76837171 134.84340785 142.53118558 129.16918945 146.42700195 C125.53532048 148.94725185 121.96390837 151.5538854 118.38452148 154.15063477 C116.84822492 155.2615356 115.31176512 156.37221072 113.77514648 157.48266602 C113.00750977 158.03776855 112.23987305 158.59287109 111.44897461 159.16479492 C108.42544061 161.35079725 105.40078597 163.53524539 102.37597656 165.71948242 C100.87829767 166.80102159 99.3807396 167.88272808 97.88330078 168.96459961 C94.14744976 171.6635465 90.41012915 174.36041018 86.66967773 177.05297852 C78.95989176 182.606181 71.27694517 188.19250681 63.63452148 193.83813477 C55.2550369 200.02824595 46.82344786 206.14287785 38.3684082 212.22924805 C35.371383 214.38776128 32.37732884 216.55037327 29.38354492 218.71337891 C27.89358431 219.78976708 26.40335331 220.86578107 24.9128418 221.94140625 C20.99648984 224.76792725 17.08425729 227.59993971 13.17749023 230.43969727 C12.36473633 231.02944336 11.55198242 231.61918945 10.71459961 232.22680664 C9.1613093 233.35405161 7.60915735 234.48286746 6.05834961 235.61352539 C-1.58482175 241.15499977 -7.0914683 244.76390623 -16.86547852 243.83813477 C-23.03356668 242.66326083 -26.43401126 239.69871221 -30.42016602 234.97094727 C-33.04674593 231.09496718 -34.10717892 227.49095767 -34.31469727 222.83935547 C-34.35973389 221.87097244 -34.40477051 220.90258942 -34.45117188 219.90486145 C-34.5943914 215.48624285 -34.70817393 211.06822965 -34.78540039 206.64794922 C-34.83860005 204.32451888 -34.92044654 202.00156054 -35.03149414 199.68017578 C-35.91436148 180.97907774 -35.91436148 180.97907774 -32.5796814 175.86700439 C-29.39016143 172.62973949 -25.68269089 170.58937625 -21.59393311 168.67807007 C-19.26421562 167.54595357 -17.28229644 166.08006699 -15.22875977 164.51000977 C-14.55876953 164.02757812 -13.8887793 163.54514648 -13.19848633 163.0480957 C-11.00248983 161.46133168 -8.81099796 159.86844654 -6.61938477 158.27563477 C-3.33569662 155.89048871 -0.02808287 153.54349587 3.29467773 151.21313477 C4.9914991 150.00509182 6.68811902 148.79676588 8.38452148 147.58813477 C9.17044678 147.04640625 9.95637207 146.50467773 10.76611328 145.9465332 C18.13566576 140.64854735 23.50657376 133.954642 25.13452148 124.83813477 C26.05058622 115.96063468 24.06916857 107.84616327 18.72070312 100.63647461 C15.74189147 97.25923486 12.11405438 94.79147659 8.44702148 92.21313477 C7.61340088 91.61339844 6.77978027 91.01366211 5.92089844 90.39575195 C4.18713052 89.14962158 2.45003372 87.90811029 0.7097168 86.67114258 C-1.7441636 84.92448596 -4.18599939 83.16253005 -6.62329102 81.39282227 C-9.48870467 79.3129942 -12.35567875 77.23548608 -15.22875977 75.16625977 C-15.92324219 74.63564941 -16.61772461 74.10503906 -17.33325195 73.55834961 C-19.39351346 72.1587543 -21.24976235 71.15596776 -23.48364258 70.10620117 C-27.64522893 67.96753172 -31.2482041 65.81068078 -33.86547852 61.83813477 C-35.96442682 54.84237722 -35.4581564 47.37915855 -35.14135742 40.16088867 C-34.99051618 36.7139955 -34.93650395 33.27624497 -34.90063477 29.82641602 C-34.85544618 27.61926317 -34.80484827 25.41221305 -34.74829102 23.20532227 C-34.7250174 22.18429413 -34.70174377 21.16326599 -34.67776489 20.11129761 C-34.34285095 12.88739103 -32.93980688 7.4739843 -28.15454102 1.81469727 C-19.10750548 -5.53336446 -9.90240555 -6.16745819 0 0 Z " fill="#ffffff" transform="translate(330.865478515625,136.161865234375)"/>
</svg>